<?xml version="1.0" encoding="UTF-8"?>
<svg id="Layer_1" xmlns="http://www.w3.org/2000/svg" version="1.1" viewBox="0 0 5000 5503">
  <!-- Generator: Adobe Illustrator 30.4.0, SVG Export Plug-In . SVG Version: 2.1.4 Build 226)  -->
  <defs>
    <style>
      .st0 {
        fill: #fef303;
      }

      .st1 {
        fill: #010001;
      }

      .st2 {
        fill: #65ea31;
      }

      .st3 {
        fill: #0484fc;
      }

      .st4 {
        fill: #090708;
      }
    </style>
  </defs>
  <polygon class="st4" points="1718.85 4266.33 1720 4270 1718 4272 1714.49 4270.76 1718.85 4266.33"/>
  <g>
    <path class="st2" d="M2809.51,2553.82l-60.69-3.36c-14.96-.83-29.21-5.8-45.24-.07l84.07,14.93c-65.29,62.96-138.2,115.91-219.64,158.21-200.76,104.65-417.73,98.74-564.8-82.58l246.02-363.03c-78.22,46.75-142.6,106.38-204.4,171.34-152.33,160.14-259.04,355.96-318.71,566.48-73.16-9.1-143.97-5.45-212.51,21.35,104.95-400.35,80.12-837.8-118.67-1208.7-90.3-125.88-182.74-252.94-313.41-355.1,101.04,175.14,193.86,340.54,264.95,523.92,44.88,115.77,82.29,231.26,103.6,354.61-126.6,57.06-267.26,58.36-392.01,1.92-133.36-60.33-232.94-176.68-306.23-301.82-75.53-128.98-127.53-266.25-158.85-412.78-74.92-350.44-27.4-741.42,97.45-1077.93,56.37,176.93,152.62,329.17,277.65,458.79,100.71,104.4,216.18,187.18,343.88,255.85,90.29,48.55,173.34,102.69,250.19,169.92l91.79,92.15c49.52,49.71,82.14,110.29,108.63,175.29,73.74,189.74,18.8,372.54-107.71,528.48,51.76,142.38,72.39,288.91,72.21,445.38,49.92-76.36,102.3-143.92,168.23-203.66-31.11-161.29-5.46-317.61,119.94-428.35,127.97-113.02,321.77-147.54,490.57-148.77,270.63-1.97,542.78-91.28,741.44-289.28-22.43,183.14-73.5,358.1-150.15,523.89-56.41,122-126.97,232.65-214.55,333.3l-73.04,79.62ZM1078.28,1472.02c1.7,2.43,3.75,4.36,5.61,1.85,1.48-4.96.74-9.18-4.93-10.44-8.88-1.97-10.32,9.93-.68,8.58Z"/>
    <g>
      <path class="st4" d="M2809.51,2553.82c298.26,23.57,602.96,69.66,886.22,170.67,223.41,79.68,444.7,198.25,604.1,375.4,103.68,115.22,191.91,270.9,200.21,429.51-160.27-255.67-458.44-400.56-739.53-490.54-211.35-67.66-426.83-105.92-646.91-130.08l-173.78-25.37c-100.35-8.43-196.45-13.71-297.59-14.58-197.66-1.72-391.26,9.24-589.29,24.39,116.58-40.28,231.38-63.18,351.32-80.23,422.51-60.06,902.3-13.76,1314.55,91.64l209.08,65.65c7.84,2.46,13.82,9.84,24.33,8.52-7.53-8.2-16.81-10.05-26.54-15.67-322.71-186.24-772.38-332.86-1138.02-397.8l-84.07-14.93c16.03-5.73,30.28-.76,45.24.07l60.69,3.36Z"/>
      <g>
        <path class="st4" d="M1726.12,3015.75c101.64,12.65,196.05,48.67,287.8,94.73-107.31,20.17-213.28,52.86-291.01,124.29-109.91,99.17-102.25,230.97-41.08,359.72,70.22,147.8,206.54,295.61,327.3,408.69,104.06,97.44,210.26,189.45,325.42,274.45,260.36,192.17,592.6,371.84,902.6,465.35,226.97,68.46,467.64,98.15,699.69,31.83-68.09,66.02-145.77,111.66-231.82,146.27-376.23,151.33-817.43,38.51-1173.46-128.95-134.18-63.11-261.29-133.51-386.09-213.96-147.2-94.89-290.66-191.89-424.41-307.2,264.26,156.57,527.18,294.52,810.11,401.93,159.01,61.27,320.12,111.46,485.78,147.05,20.99,4.51,37.84,11.13,59.47,10.91l-62.32-19.44c-143.83-48.63-281.36-109.81-416.69-181.44-208.42-110.32-406.51-235.03-596.51-375.22-106.96-78.92-201.32-170.68-294.81-264.48-124.85-125.28-260.62-291.03-333.06-450.87-65.94-145.51-82.05-308.75,36.05-426.28,31.09-30.93,63.73-60.09,104.5-76.03,68.54-26.8,139.35-30.45,212.51-21.35Z"/>
        <path class="st1" d="M3181.1,4437.13c99.2,19.24,192.13,33.1,290.86,39.41,172.23,10.85,427.33-.7,440.97-204.58,4.05-93.88-36.51-184.52-82.21-268.58,102.71,39.04,244.35,40.51,330.55-29.27,71.18,120.14,132.01,268.07,107.49,406.86-12.21,69.13-43.56,132.84-98.49,177.24-340.55,275.29-959.02,20.53-1297.43-189.85l308.26,68.76Z"/>
      </g>
    </g>
  </g>
  <g>
    <circle class="st0" cx="2379.79" cy="3688.22" r="72.74"/>
    <circle class="st0" cx="3955.44" cy="3718.4" r="69.72"/>
    <path class="st3" d="M4360.27,3655.03l-25.66-30.59-3.06,1.55,19.16,30.71c17.11,27.44,36.55,49.58,64.29,69.36,11.78,11.23,22.46,32.73,29.95,47.25,14.91,28.87-1.3,57.22-29.37,66.32-29.75,9.64-58.75,16.45-90.21,17.7l-200.63,8c71.56-100.94,50.02-232.46-47.29-303.26-31.93-20.01-66.59-35.94-108.29-34.95,47.79,28.76,85.9,69.62,89.63,125.71-32.99-79.07-117.02-123.42-201.1-103-12.02,2.92-23,13.87-31.6,23.54,56.2-3.55,107.36,10.52,138.99,52.41.1.57.88,1.24,1.65,1.35,3.77,3.29-.7,4.62-1.7,3.88l-3.86-3.21c-65.55-54.55-163.42-36.18-207.25,38.27-22.32,68.26-11.41,139.03,32.11,199.22l-163.44-.62-729.87.9-417.88,26.14c18.64-11.66,38.91-22.15,54.12-38.56,5.89-6.35,10.83-8.54,17.9-8.89l45.55-2.29c-16.61-4.26-31.22-1.28-46.58-2.62,54.81-65.87,74.04-154.36,37.92-238.51-29.95-69.77-100.47-125.41-180.93-130.86l-2.51,5.03c37.32,17.62,92.98,81.41,89.64,129.16-27.76-75.21-99.26-121.53-177.76-117.06-25.88,1.48-48.17,10.43-66.02,29.35,56.27-4.53,108.31,8.97,141.69,49.55.55.67,1.97,1.43,2.68,1.54,4.15,3.19-1.16,7.86-3.7,3.16.52-1.48-1.42-2.3-1.62-.41-70.11-48.44-164-33.33-210.67,40.47-29.55,77.36-12.22,161.75,41.53,222.26-.09,1.25,1.34,2.44,2.49,2.43,3.49,2.49-.48,6.31-2.87,2.89-.34-.2-1.02-.15-1.57-.25l-146.35-26.5c-45.59-8.26-86.16-36.54-114.24-72.79-41.91-54.1-78.34-162.32-58.3-227.68,3.96-8.21,16.97-14.79,23.91-19.49,45.08-30.55,51.83-72.82,57.29-129.22,31.89,10.24,63.18,16.56,95.66,9.61l95.36-20.38,185.41-62.94c142.03-48.21,282.57-85.64,431.25-108.37,306.74-46.89,553.84,44.66,817.83,188.67l205.13,27.77c130.1,21.88,255.12,50.84,374.96,105.17l151.59,68.72c18.46,8.37,42.67,20.14,53.49,37.22l15.94,85.65c-20.19-12.55-31.28-24.84-42.77-38.53ZM2003.63,3390.33c22.46,9.67,47.66,17.97,74.15,19.37l174.47,9.2,384.04-11.12c342.01-9.9,728.25-26.97,1066.32,9.36,143.8,15.45,282.75,40.87,420.89,82.48,11.46,3.45,20.26,12.3,33.42,6.27-131.07-48.74-265.43-79.29-404.89-101.2l-178.33-21.88c-195.08-104.18-398.24-186.79-622.26-187.78-72.22-.32-143.21,4.07-212.42,21.07,167.6-19.42,327.66-10.18,486.73,42.21,92.04,30.32,180.63,64.33,266.6,115.6-309.2-14.87-605.54-10.74-908.06,3.77l-388.01,18.61c-65.57,3.15-127.82,2.04-189.69-9.29l-2.95,3.32ZM1997.14,3385.75c8,7.25,4.93-3.9,6.49-.42l-6.49.42ZM2400.41,3469.71c-4.65-3.74-3.83.06-7.5,1.82l7.5-1.82ZM4326.72,3612.93c1.13.35-4.22-.19-1.2,3.4l1.2-3.4ZM4330.07,3616.01l-2.48,2.21,2.31,6.1c1.36-.3,2.49-1.52,2.71-2.64.44-2.21-1.15-4.39-2.54-5.67Z"/>
  </g>
</svg>